<svg xmlns="http://www.w3.org/2000/svg" width="64" height="64" viewBox="0 0 64 64"><g transform="translate(0 -988.362)"><circle cx="32" cy="1020.362" r="32" fill="#ef4c45" fill-rule="evenodd"/><path fill="#fff" d="m 32.256648,1002.5418 c 1.029883,3.5798 1.178957,6.0005 -0.285156,8.5195 -0.198426,-3.2263 -0.56506,-4.8235 -2.103515,-6.1836 -1.667603,6.2236 -8.289063,8.6473 -8.289063,14.918 0,5.3896 4.792948,9.5041 10.138672,9.4687 -3.265689,-0.1701 -6.107422,-2.7519 -6.107422,-6.0918 0,-4.0382 4.242302,-5.5996 5.310547,-9.6074 0.985474,0.8759 1.218711,2.3072 1.345703,4.3848 1.019528,-1.0196 1.828029,-1.9999 1.650391,-4.4336 1.793915,1.8717 4.378446,5.085 4.609375,8.8574 0.190496,3.1124 -1.830366,5.8438 -4.699219,6.6563 4.7821,-1.0461 8.226019,-5.4365 7.916016,-10.4746 -0.54584,-8.8721 -9.486329,-16.0137 -9.486329,-16.0137 z m -16.484375,23.8379 c -0.777006,-0.047 -1.505538,0.4552 -1.714844,1.2363 -0.239244,0.8928 0.29087,1.8116 1.183594,2.0508 l 0.04297,0.01 8.472656,2.2754 6.431641,-1.7285 -14.054687,-3.7793 -0.02734,-0.012 c -0.111596,-0.03 -0.222984,-0.046 -0.333985,-0.053 z m 31.94336,0 c -0.111004,0.01 -0.222385,0.023 -0.333985,0.053 l -0.02539,0.012 -30.113282,8.0957 c 0.665359,0.4888 1.105492,1.271 1.105469,2.1504 10e-6,0.3795 -0.08277,0.74 -0.228515,1.0684 l 30.085937,-8.082 0.04297,-0.01 c 0.892725,-0.2392 1.422838,-1.158 1.183594,-2.0508 -0.209306,-0.7811 -0.939773,-1.283 -1.716797,-1.2364 z m -7.982422,6.4101 -6.429688,1.7266 12.066407,3.2422 c -0.145742,-0.3284 -0.228526,-0.6889 -0.228516,-1.0684 -2.3e-5,-0.8794 0.44011,-1.6616 1.105469,-2.1504 l -6.513672,-1.75 z m -24.058594,2.2246 a 1.6735566,1.6735566 0 0 0 -1.673828,1.6739 1.6735566,1.6735566 0 0 0 1.673828,1.6738 1.6735566,1.6735566 0 0 0 1.673828,-1.6738 1.6735566,1.6735566 0 0 0 -1.673828,-1.6739 z m 32.140625,0 a 1.6735566,1.6735566 0 0 0 -1.673828,1.6739 1.6735566,1.6735566 0 0 0 1.673828,1.6738 1.6735566,1.6735566 0 0 0 1.671875,-1.6738 1.6735566,1.6735566 0 0 0 -1.671875,-1.6739 z m -32.140625,1.1739 a 0.5,0.5 0 0 1 0.5,0.5 0.5,0.5 0 0 1 -0.5,0.5 0.5,0.5 0 0 1 -0.5,-0.5 0.5,0.5 0 0 1 0.5,-0.5 z m 32.140625,0 a 0.5,0.5 0 0 1 0.5,0.5 0.5,0.5 0 0 1 -0.5,0.5 0.5,0.5 0 0 1 -0.5,-0.5 0.5,0.5 0 0 1 0.5,-0.5 z"/></g></svg>